<svg width="130" height="378" viewBox="0 0 130 378" fill="none" xmlns="http://www.w3.org/2000/svg">
<path opacity="0.5" d="M58.7681 22.2457C71.102 24.6286 68.7513 48.4255 67.703 57.8744C65.1932 79.1899 65.3371 90.9449 83.9657 103.157C107.856 118.851 109.509 128.744 107.079 155.866C105.078 179.122 126.392 182.791 129 202.355C130.734 215.446 126.985 244.015 121.057 255.676C110.696 275.976 85.8852 276.412 66.4308 274.253C46.1181 271.999 25.2006 256.925 4.39565 261.718C-13.7232 265.795 -28.0583 284.059 -34.2081 300.333C-41.6292 320.235 -30.5654 343.201 -42.0079 360.192C-60.7449 388.113 -109.62 377.038 -135.401 366.642C-134.464 351.673 -140.298 337.693 -143.176 323.171C-147.962 298.437 -149.315 270.171 -147.679 244.991C-146.155 220.812 -145.712 189.412 -134.938 167.999C-124.179 146.729 -110.877 126.031 -99.276 105C-93.4913 94.6272 -86.5622 84.3816 -81.6041 73.6275C-74.8978 58.8644 -76.2181 44.66 -72.2297 29.5954C-57.2615 -25.6999 25.6762 13.7916 58.7681 22.2457Z" fill="#F3ECE9"/>
</svg>
