<svg width="262" height="400" viewBox="0 0 262 400" fill="none" xmlns="http://www.w3.org/2000/svg">
<g opacity="0.5" clip-path="url(#clip0_52_5)">
<path d="M189.087 0.600342C166.855 35.6017 174.01 101.495 178.792 142.754C181.269 164.275 184.166 184.257 154.57 179.607C98.2049 170.835 71.0169 158.245 46.2371 171.375C7.18281 192.082 59.2552 244.833 87.56 274.849C90.1078 277.616 171.916 364.827 186.016 364.562C268.033 362.76 233.446 364.018 257.458 362.504C262.31 362.264 262.449 369.332 252.398 318.936C240.322 310.246 224.547 296.653 219.137 283.176C212.645 267.004 225.908 262.539 239.589 254.716C222.906 170.162 205.979 85.2939 189.087 0.600342Z" fill="#EFC8B1"/>
</g>
<defs>
<clipPath id="clip0_52_5">
<rect width="192" height="369" fill="white" transform="matrix(-0.980684 0.195597 0.195597 0.980684 189.262 0.565552)"/>
</clipPath>
</defs>
</svg>
