<svg width="69" height="69" viewBox="0 0 69 69" fill="none" xmlns="http://www.w3.org/2000/svg">
<g clip-path="url(#clip0_52_110)">
<path d="M60.9705 28.3313C62.3378 26.2367 62.0853 23.5113 60.3564 21.7036C59.5944 20.9068 59.2759 19.7875 59.5042 18.7091C60.0227 16.2619 58.8026 13.8117 56.5374 12.7507C55.539 12.2831 54.8377 11.3542 54.661 10.2662C54.2604 7.79697 52.2375 5.95298 49.7421 5.78182C48.6423 5.70636 47.6527 5.09371 47.0949 4.1428C45.8292 1.98534 43.2775 0.996566 40.8881 1.73832C39.8353 2.06526 38.6914 1.85125 37.8277 1.16624C35.8681 -0.38842 33.1311 -0.38842 31.1716 1.16624C30.3081 1.85152 29.1639 2.06526 28.1113 1.73832C25.7224 0.996432 23.1701 1.98521 21.9045 4.1428C21.3467 5.09371 20.3572 5.70636 19.2574 5.78182C16.7618 5.95298 14.7391 7.79711 14.3383 10.2662C14.1618 11.3542 13.4603 12.2831 12.4621 12.7507C10.197 13.8118 8.97696 16.262 9.49514 18.7091C9.72356 19.7875 9.40498 20.907 8.64315 21.7037C6.91438 23.5115 6.66169 26.237 8.02902 28.3316C8.63156 29.2546 8.73897 30.4136 8.31621 31.4318C7.35708 33.7419 8.10624 36.3746 10.1377 37.8338C11.0331 38.477 11.5518 39.5189 11.5254 40.6209C11.4657 43.1215 13.1152 45.3058 15.5367 45.9327C16.2515 46.1177 16.8725 46.5313 17.3175 47.0954L11.7484 60.5401C10.968 62.4242 12.7344 64.3644 14.6821 63.7665L20.7792 61.8954C20.9574 61.8411 21.1495 61.9207 21.2367 62.085L24.2249 67.7193C25.1808 69.5217 27.8013 69.3944 28.5808 67.5124L34.3853 53.4994C34.4614 53.4968 34.5376 53.4968 34.6137 53.4994L40.4182 67.5124C41.1992 69.3974 43.8195 69.5191 44.7742 67.7194L47.7624 62.085C47.8494 61.9206 48.0417 61.841 48.2199 61.8955L54.3168 63.7666C56.2657 64.3648 58.0307 62.4233 57.2507 60.5402L51.6815 47.0956C52.1265 46.5314 52.7475 46.1179 53.4623 45.9328C55.8838 45.306 57.5331 43.1217 57.4736 40.621C57.4472 39.5191 57.966 38.4772 58.8614 37.8341C60.893 36.3747 61.6419 33.7421 60.6828 31.4319C60.2607 30.4133 60.3681 29.2544 60.9705 28.3313ZM26.7136 66.7386C26.5868 67.0448 26.1655 67.0635 26.0109 66.772L23.0228 61.1377C22.4822 60.1185 21.2894 59.6247 20.1866 59.963L14.0896 61.8341C13.7733 61.9308 13.4896 61.6193 13.6163 61.3135L18.557 49.385C19.6718 50.912 21.5354 51.763 23.4972 51.5339C24.592 51.4063 25.6773 51.8265 26.4003 52.6586C27.4492 53.8661 28.9271 54.507 30.435 54.5069C30.912 54.5069 31.3917 54.4402 31.8621 54.3096L26.7136 66.7386ZM54.9102 61.8339L48.8133 59.9629C47.7105 59.6246 46.5174 60.1185 45.977 61.1376L42.9888 66.7719C42.8345 67.0631 42.4127 67.0443 42.286 66.7385L37.1387 54.3119C39.0953 54.855 41.2191 54.2472 42.5995 52.6583C43.3224 51.8261 44.4073 51.4056 45.5026 51.5337C47.4663 51.7632 49.3286 50.9119 50.4427 49.3848L55.3838 61.3129C55.5107 61.6199 55.2254 61.9303 54.9102 61.8339ZM59.278 27.2265C58.3101 28.7094 58.1376 30.571 58.8165 32.2065C59.4135 33.6446 58.9474 35.2834 57.6826 36.192C56.2444 37.2251 55.411 38.8987 55.4533 40.6689C55.4905 42.2257 54.4636 43.5855 52.9561 43.9756C51.5461 44.3407 50.362 45.2584 49.6519 46.4995C49.65 46.5031 49.648 46.5066 49.6461 46.5102C49.4956 46.7747 49.3651 47.0531 49.2602 47.3449C48.7326 48.8099 47.2848 49.7077 45.7373 49.5263C43.9787 49.3207 42.235 49.9963 41.0737 51.333C40.0526 52.5084 38.3776 52.8215 37.0005 52.0944C36.5322 51.847 36.0363 51.6753 35.5298 51.576C35.5257 51.5751 35.5215 51.5741 35.5173 51.5733C34.8445 51.443 34.1532 51.4431 33.4805 51.5738C33.478 51.5744 33.4757 51.5749 33.4733 51.5753C32.9656 51.6746 32.4688 51.8466 31.9994 52.0944C30.6223 52.8216 28.9475 52.5084 27.9264 51.333C26.9024 50.1545 25.4263 49.4901 23.8858 49.4901C23.6791 49.4901 23.4709 49.5021 23.2627 49.5265C21.7166 49.7075 20.2672 48.8102 19.7396 47.345C19.6346 47.0535 19.5044 46.7755 19.3541 46.5111C19.3518 46.5068 19.3495 46.5027 19.3472 46.4984C18.637 45.2579 17.4533 44.3406 16.0437 43.9756C14.5362 43.5853 13.5094 42.2257 13.5466 40.669C13.5889 38.8987 12.7555 37.2252 11.3173 36.192C10.0527 35.2835 9.58624 33.6446 10.1834 32.2064C10.8623 30.5709 10.6898 28.7092 9.72195 27.2264C8.8709 25.9225 9.02804 24.2258 10.1044 23.1006C11.3282 21.8208 11.8399 20.0225 11.4731 18.2902C11.1505 16.7668 11.91 15.2416 13.3201 14.5809C14.9236 13.8298 16.0503 12.3378 16.3341 10.5899C16.5835 9.05272 17.8428 7.90479 19.3962 7.79832C21.1629 7.67717 22.7526 6.69297 23.6485 5.16541C24.4365 3.82233 26.0256 3.20699 27.5122 3.6687C29.2034 4.19388 31.0412 3.85036 32.4285 2.74973C33.6481 1.78185 35.3521 1.78185 36.5721 2.74973C37.9593 3.85023 39.7968 4.19402 41.4882 3.6687C42.9754 3.20686 44.5643 3.82247 45.352 5.16541C46.2479 6.69284 47.8376 7.67703 49.6042 7.79832C51.1577 7.90492 52.4169 9.05286 52.6664 10.5899C52.9502 12.3378 54.077 13.8298 55.6804 14.5811C57.0906 15.2416 57.85 16.7668 57.5274 18.2902C57.1605 20.0225 57.6721 21.8208 58.896 23.1006C59.9719 24.2258 60.129 25.9225 59.278 27.2265Z" fill="#CB7D26"/>
<path d="M15.3566 25.8924C15.9101 25.9605 16.4151 25.5667 16.4831 25.0128C17.5993 15.941 25.3449 9.10021 34.5 9.10021C43.6594 9.10021 51.4054 15.9447 52.5179 25.0213C52.5807 25.5335 53.0165 25.9091 53.5197 25.9091C53.5608 25.9091 53.6022 25.9066 53.644 25.9014C54.198 25.8335 54.592 25.3294 54.5242 24.7753C53.2876 14.6866 44.6791 7.07886 34.5 7.07886C24.3256 7.07886 15.7175 14.6826 14.4769 24.7659C14.4088 25.3199 14.8026 25.8242 15.3566 25.8924Z" fill="#CB7D26"/>
<path d="M53.6439 28.6054C53.0915 28.538 52.5857 28.9317 52.5178 29.4857C51.4057 38.5627 43.6596 45.4076 34.4998 45.4076C25.3441 45.4076 17.5984 38.5661 16.4827 29.4936C16.4146 28.9398 15.9106 28.5461 15.3562 28.6139C14.8023 28.682 14.4082 29.1864 14.4764 29.7404C15.7165 39.8245 24.3246 47.4288 34.4996 47.4288C44.6793 47.4288 53.2878 39.8206 54.5239 29.7314C54.592 29.1775 54.1979 28.6733 53.6439 28.6054Z" fill="#CB7D26"/>
<path d="M48.7714 23.083C48.5145 22.2924 47.8119 21.7623 46.9811 21.7325L39.0567 21.4483L36.3375 13.9995C36.0525 13.2187 35.3312 12.7141 34.5 12.7141C33.6688 12.7141 32.9475 13.2187 32.6625 13.9995L29.9433 21.4483L22.019 21.7325C21.1883 21.7623 20.4855 22.2924 20.2286 23.083C19.9717 23.8735 20.2286 24.7155 20.8831 25.2279L27.127 30.1157L24.9486 37.7402C24.7202 38.5395 25.0072 39.3717 25.6799 39.8604C26.3517 40.3485 27.2318 40.3652 27.922 39.9005L34.4999 35.4725L41.0779 39.9002C41.7672 40.3644 42.6474 40.3487 43.32 39.8601C43.9926 39.3716 44.2795 38.5394 44.0511 37.74L41.8728 30.1156L48.1166 25.2278C48.7713 24.7154 49.0283 23.8735 48.7714 23.083ZM40.5925 28.551C39.9625 29.0442 39.6974 29.8599 39.9173 30.6289L42.0587 38.1239L35.5924 33.7714C35.2605 33.5479 34.8802 33.4362 34.4999 33.4362C34.1196 33.4362 33.7392 33.5479 33.4075 33.7712L26.941 38.1238L29.0824 30.6289C29.3022 29.8597 29.0373 29.0442 28.4074 28.551L22.2693 23.746L30.0595 23.4665C30.8589 23.4378 31.5527 22.9337 31.8269 22.1823L34.5 14.86L37.1731 22.1823C37.4475 22.9337 38.1411 23.4378 38.9405 23.4664L46.7304 23.7459L40.5925 28.551Z" fill="#CB7D26"/>
</g>
<defs>
<clipPath id="clip0_52_110">
<rect width="69" height="69" fill="white"/>
</clipPath>
</defs>
</svg>
