<svg width="68" height="68" viewBox="0 0 68 68" fill="none" xmlns="http://www.w3.org/2000/svg">
<g clip-path="url(#clip0_52_132)">
<path d="M64.0156 36.6547H62.6875V27.3579C62.6875 23.6928 60.1139 20.6195 56.6793 19.8449L50.6344 9.37477C49.7485 7.84039 48.3181 6.74269 46.6066 6.28409C45.3981 5.96043 44.1521 5.9842 42.9836 6.33695L38.588 1.94126C36.0015 -0.645 31.7935 -0.645266 29.2069 1.94126L11.4937 19.6547H7.70312C3.45565 19.6547 0 23.1104 0 27.3579V60.2954C0 64.5428 3.45565 67.9985 7.70312 67.9985H25.3672C26.1006 67.9985 26.6953 67.4037 26.6953 66.6703C26.6953 65.937 26.1006 65.3422 25.3672 65.3422H7.70312C4.9203 65.3422 2.65625 63.0782 2.65625 60.2954V27.3579C2.65625 24.575 4.9203 22.311 7.70312 22.311H54.9844C57.7672 22.311 60.0312 24.575 60.0312 27.3579V36.6547H50.2031C46.2486 36.6547 43.0312 39.8721 43.0312 43.8266C43.0312 47.7811 46.2486 50.9985 50.2031 50.9985H60.0312V60.2954C60.0312 63.0782 57.7672 65.3422 54.9844 65.3422H37.3203C36.5869 65.3422 35.9922 65.937 35.9922 66.6703C35.9922 67.4037 36.5869 67.9985 37.3203 67.9985H54.9844C59.2319 67.9985 62.6875 64.5428 62.6875 60.2954V50.9985H64.0156C66.2126 50.9985 68 49.2111 68 47.0141V40.6391C68 38.4422 66.2126 36.6547 64.0156 36.6547ZM45.9191 8.8499C46.9452 9.12482 47.8029 9.78291 48.3341 10.7029L53.5025 19.6547H24.8749L42.9012 9.24714C43.8211 8.71616 44.8926 8.57484 45.9191 8.8499ZM31.0853 3.81963C31.8364 3.06844 32.8352 2.65473 33.8975 2.65473C34.9598 2.65473 35.9587 3.06844 36.7098 3.81963L40.4725 7.58234L19.5625 19.6547H15.2503L31.0853 3.81963ZM65.3438 47.0141C65.3438 47.7464 64.748 48.3422 64.0156 48.3422H50.2031C47.7132 48.3422 45.6875 46.3166 45.6875 43.8266C45.6875 41.3366 47.7132 39.311 50.2031 39.311H64.0156C64.748 39.311 65.3438 39.9068 65.3438 40.6391V47.0141Z" fill="#CB7D26"/>
<path d="M49.9814 42.4985C49.6321 42.4985 49.2895 42.6405 49.0425 42.8877C48.7954 43.1348 48.6533 43.476 48.6533 43.8267C48.6533 44.176 48.7953 44.5186 49.0425 44.7655C49.2895 45.0125 49.6321 45.1548 49.9814 45.1548C50.3321 45.1548 50.6734 45.0127 50.9203 44.7655C51.1687 44.5186 51.3096 44.176 51.3096 43.8267C51.3096 43.4774 51.1687 43.1347 50.9203 42.8877C50.6734 42.6406 50.3321 42.4985 49.9814 42.4985Z" fill="#CB7D26"/>
<path d="M31.3438 65.3423C30.9945 65.3423 30.6518 65.4843 30.4048 65.7314C30.1577 65.9786 30.0156 66.3211 30.0156 66.6704C30.0156 67.0197 30.1576 67.3624 30.4048 67.6093C30.6518 67.8563 30.9945 67.9985 31.3438 67.9985C31.693 67.9985 32.0357 67.8564 32.2826 67.6093C32.5296 67.3624 32.6719 67.0197 32.6719 66.6704C32.6719 66.3211 32.5298 65.9785 32.2826 65.7314C32.0357 65.4844 31.693 65.3423 31.3438 65.3423Z" fill="#CB7D26"/>
</g>
<defs>
<clipPath id="clip0_52_132">
<rect width="68" height="68" fill="white"/>
</clipPath>
</defs>
</svg>
