<svg width="70" height="70" viewBox="0 0 70 70" fill="none" xmlns="http://www.w3.org/2000/svg">
<path d="M35.0002 0C22.0288 0 11.4761 10.5528 11.4761 23.5241C11.4761 28.5786 13.0542 33.3941 16.04 37.4519L33.8629 63.91C34.1178 64.2883 34.5441 64.5151 35.0002 64.5151C35.4564 64.5151 35.8826 64.2883 36.1374 63.91L53.9603 37.452C56.9461 33.3941 58.5243 28.5787 58.5243 23.5242C58.5243 10.5528 47.9715 0 35.0002 0ZM51.7304 35.8554C51.7132 35.8788 51.6964 35.9032 51.6804 35.9282L35.0002 60.6896L18.3228 35.9321C18.3061 35.9059 18.2885 35.8805 18.27 35.8553C15.6195 32.2656 14.2185 28.0016 14.2185 23.524C14.2185 12.065 23.5412 2.74244 35.0002 2.74244C46.4591 2.74244 55.7818 12.0652 55.7818 23.5241C55.7818 28.0016 54.3809 32.2658 51.7304 35.8554Z" fill="#CB7D26"/>
<path d="M44.5984 22.0079C43.8411 22.0079 43.2272 22.6218 43.2272 23.3791C43.2272 27.9155 39.5365 31.6062 35 31.6062C30.4636 31.6062 26.7729 27.9155 26.7729 23.3791C26.7729 18.8426 30.4636 15.1519 35 15.1519C36.6489 15.1519 38.2392 15.6375 39.5991 16.5561C40.2267 16.9801 41.079 16.815 41.5029 16.1875C41.9269 15.5601 41.7619 14.7077 41.1343 14.2837C39.3193 13.0576 37.1981 12.4094 34.9999 12.4094C28.9512 12.4094 24.0303 17.3303 24.0303 23.3791C24.0303 29.4278 28.9512 34.3487 34.9999 34.3487C41.0486 34.3487 45.9695 29.4278 45.9695 23.3791C45.9695 22.6218 45.3557 22.0079 44.5984 22.0079Z" fill="#CB7D26"/>
<path d="M51.4314 67.2576H18.5225C17.7652 67.2576 17.1514 67.8714 17.1514 68.6287C17.1514 69.386 17.7652 69.9999 18.5225 69.9999H51.4314C52.1887 69.9999 52.8026 69.386 52.8026 68.6287C52.8027 67.8714 52.1887 67.2576 51.4314 67.2576Z" fill="#CB7D26"/>
<path d="M43.5017 17.4973H43.4742C42.7169 17.4973 42.103 18.1112 42.103 18.8685C42.103 19.6258 42.7169 20.2396 43.4742 20.2396H43.5017C44.2589 20.2396 44.8728 19.6258 44.8728 18.8685C44.8729 18.1112 44.2589 17.4973 43.5017 17.4973Z" fill="#CB7D26"/>
</svg>
