<svg width="70" height="70" viewBox="0 0 70 70" fill="none" xmlns="http://www.w3.org/2000/svg">
<g clip-path="url(#clip0_52_130)">
<path d="M64.4782 8.69272C60.7968 4.78191 55.7108 2.49639 50.3422 2.34033C44.9735 2.18428 39.7633 4.17052 35.861 7.86088L34.9755 8.69738C27.3063 0.563332 14.4953 0.186467 6.36126 7.85563C-1.77279 15.5248 -2.14966 28.3358 5.51951 36.4699L7.51334 38.5827C6.67147 40.5319 6.94051 42.783 8.21804 44.4789C9.49557 46.1748 11.585 47.0545 13.6908 46.7832C13.3343 48.6389 13.8915 50.5529 15.1884 51.9272C16.4853 53.3015 18.3638 53.9687 20.237 53.7202C19.8805 55.5756 20.4375 57.4893 21.7342 58.8634C23.0309 60.2375 24.9091 60.9045 26.782 60.6561C26.318 63.1759 27.5258 65.7087 29.7759 66.9342C32.0261 68.1597 34.809 67.8005 36.6742 66.0437C43.3323 59.7577 43.1235 60.0716 43.7523 59.0122C45.6998 59.9705 48.0163 59.7804 49.7815 58.5176C51.5467 57.2548 52.4747 55.1237 52.1967 52.9712C54.052 53.319 55.9617 52.7574 57.3334 51.4607C58.7052 50.1639 59.3731 48.2888 59.1302 46.4169C61.6649 46.8825 64.2099 45.6565 65.4256 43.3841C66.6412 41.1118 66.2488 38.3142 64.4548 36.4641C71.8422 28.6844 71.8525 16.4848 64.4782 8.69272ZM10.3437 43.3999C8.98061 41.9516 9.04635 39.6735 10.4907 38.3062L16.5573 32.5779C18.008 31.2379 20.2671 31.3156 21.6223 32.7521C22.9775 34.1885 22.9237 36.4482 21.5017 37.8186L15.435 43.5469C13.9878 44.9103 11.7098 44.8446 10.3437 43.3999ZM16.8898 50.3369C15.5255 48.8891 15.5913 46.6099 17.0368 45.2432L23.1035 39.5149C24.5504 38.1499 26.8298 38.2162 28.1948 39.6631C29.5599 41.1099 29.4935 43.3894 28.0467 44.7544L21.98 50.4839C20.5311 51.8444 18.2545 51.776 16.8898 50.3311V50.3369ZM23.4348 57.2727C22.0722 55.8245 22.1385 53.5467 23.583 52.1802L29.6497 46.4519C31.1058 45.1736 33.3123 45.2764 34.6432 46.6845C35.9741 48.0927 35.9524 50.3015 34.594 51.6832L28.5273 57.4116C27.0811 58.7777 24.8012 58.7129 23.4348 57.2669V57.2727ZM35.0723 64.3567C34.1364 65.2399 32.8004 65.5567 31.5675 65.1878C30.3346 64.8189 29.3922 63.8202 29.0953 62.5681C28.7984 61.3159 29.1921 60.0004 30.128 59.1172L36.1947 53.3877C37.6454 52.0478 39.9044 52.1255 41.2596 53.5619C42.6148 54.9983 42.561 57.2581 41.139 58.6284L35.0723 64.3567ZM62.6675 43.2202C61.9741 43.8779 61.0472 44.2321 60.0919 44.2045C59.1366 44.1769 58.2317 43.7698 57.5773 43.0732L42.0303 26.5999C41.588 26.1311 40.8494 26.1097 40.3807 26.5521C39.9119 26.9944 39.8905 27.733 40.3328 28.2017L55.8833 44.6739C56.7668 45.6096 57.0839 46.9456 56.7152 48.1785C56.3466 49.4115 55.3481 50.3541 54.0961 50.6513C52.844 50.9485 51.5284 50.5551 50.645 49.6194L35.0957 33.1449C34.8095 32.8417 34.3834 32.7141 33.9777 32.8103C33.572 32.9065 33.2485 33.2118 33.1289 33.6112C33.0094 34.0106 33.112 34.4435 33.3982 34.7467L48.9428 51.2166C50.1703 52.5161 50.2575 54.5198 49.1476 55.9211C48.0377 57.3224 46.0673 57.6963 44.5212 56.7991C44.7632 55.1324 44.2802 53.4419 43.1942 52.1548C42.1082 50.8676 40.5231 50.1069 38.8395 50.0651C37.5562 50.0312 38.0228 50.5166 38.0555 49.2332C38.102 47.6594 37.5209 46.1317 36.4404 44.9866C35.3598 43.8415 33.8683 43.1729 32.2945 43.1281C31.0112 43.0872 31.472 43.5947 31.5105 42.2962C31.5563 40.7224 30.9749 39.1949 29.8942 38.0499C28.8136 36.9049 27.3222 36.2362 25.7483 36.1911C24.4568 36.1549 24.9258 36.6682 24.9643 35.3592C25.0273 32.9626 23.6438 30.7629 21.4562 29.7817C19.2687 28.8005 16.7058 29.2302 14.9578 30.8711C6.61618 38.7449 9.49434 36.0312 8.87251 36.618L7.21818 34.868C0.434001 27.6718 0.768034 16.3385 7.96426 9.5543C15.1605 2.77012 26.4938 3.10416 33.278 10.3004L23.723 19.3234C22.817 20.1922 22.2836 21.3789 22.2355 22.6332C22.1188 27.4247 29.246 30.4417 33.6012 26.3199L42.3092 18.1019C42.5341 17.8892 42.8343 17.7747 43.1437 17.7834C43.4531 17.7922 43.7463 17.9235 43.9588 18.1485C46.2478 20.574 60.6188 35.8037 62.8145 38.1289C63.4705 38.8234 63.8236 39.7501 63.796 40.705C63.7684 41.6599 63.3625 42.5647 62.6675 43.2202ZM62.867 34.7852L45.6552 16.5467C45.0179 15.8717 44.1386 15.4775 43.2107 15.4508C42.2828 15.4241 41.3823 15.7671 40.7073 16.4044L31.9982 24.6247C31.0732 25.4978 29.8387 25.9665 28.5674 25.9273C27.2961 25.8882 26.0927 25.3443 25.2233 24.4159C24.7856 23.9518 24.5506 23.3327 24.5701 22.6951C24.5896 22.0575 24.862 21.4538 25.3272 21.0174L37.4605 9.55722C44.4875 2.90499 55.5275 3.03671 62.3937 9.85469C69.26 16.6727 69.4695 27.7115 62.867 34.7852Z" fill="#CB7D26"/>
</g>
<defs>
<clipPath id="clip0_52_130">
<rect width="70" height="70" fill="white"/>
</clipPath>
</defs>
</svg>
