<svg width="16" height="16" viewBox="0 0 16 16" fill="none" xmlns="http://www.w3.org/2000/svg">
<g clip-path="url(#clip0_52_180)">
<path d="M7.60997 15.7913C7.69691 15.9217 7.84328 16 8 16C8.15672 16 8.30309 15.9217 8.39003 15.7913C9.49937 14.1273 11.1333 12.0723 12.272 9.98222C13.1824 8.31109 13.625 6.88581 13.625 5.625C13.625 2.52338 11.1016 0 8 0C4.89838 0 2.375 2.52338 2.375 5.625C2.375 6.88581 2.81759 8.31109 3.72803 9.98222C4.86581 12.0707 6.50291 14.1307 7.60997 15.7913ZM8 0.9375C10.5847 0.9375 12.6875 3.04031 12.6875 5.625C12.6875 6.72512 12.2823 8.00369 11.4487 9.53372C10.4672 11.3352 9.06669 13.1627 8 14.699C6.93347 13.1629 5.53281 11.3353 4.55128 9.53372C3.71772 8.00369 3.3125 6.72512 3.3125 5.625C3.3125 3.04031 5.41531 0.9375 8 0.9375Z" fill="#6C6C6C"/>
<path d="M8 8.4375C9.55081 8.4375 10.8125 7.17581 10.8125 5.625C10.8125 4.07419 9.55081 2.8125 8 2.8125C6.44919 2.8125 5.1875 4.07419 5.1875 5.625C5.1875 7.17581 6.44919 8.4375 8 8.4375ZM8 3.75C9.03387 3.75 9.875 4.59113 9.875 5.625C9.875 6.65887 9.03387 7.5 8 7.5C6.96613 7.5 6.125 6.65887 6.125 5.625C6.125 4.59113 6.96613 3.75 8 3.75Z" fill="#6C6C6C"/>
</g>
<defs>
<clipPath id="clip0_52_180">
<rect width="16" height="16" fill="white"/>
</clipPath>
</defs>
</svg>
