<?xml version="1.0" standalone="no"?>
<!DOCTYPE svg PUBLIC "-//W3C//DTD SVG 20010904//EN"
 "http://www.w3.org/TR/2001/REC-SVG-20010904/DTD/svg10.dtd">
<svg version="1.0" xmlns="http://www.w3.org/2000/svg"
 width="48.000000pt" height="48.000000pt" viewBox="0 0 48.000000 48.000000"
 preserveAspectRatio="xMidYMid meet">

<g transform="translate(0.000000,48.000000) scale(0.100000,-0.100000)"
fill="#000000" stroke="none">
<path d="M185 471 c-94 -24 -162 -97 -179 -194 -7 -36 -6 -38 14 -32 26 8 66
-16 75 -45 9 -27 -18 -68 -47 -72 -21 -3 -21 -4 12 -41 50 -58 103 -81 180
-81 124 0 219 83 236 206 6 42 5 44 -30 60 l-35 17 6 -29 c4 -23 2 -30 -10
-30 -9 0 -19 16 -26 44 -16 65 -15 69 19 51 42 -22 50 -19 45 16 -11 84 -157
157 -260 130z m149 -163 c54 -24 37 -86 -28 -108 -69 -22 -123 34 -79 82 32
36 67 45 107 26z m-159 -78 l-16 -32 28 4 c49 6 33 -24 -21 -38 -53 -14 -52
-15 -31 54 6 18 4 22 -15 22 -35 0 -18 24 26 36 47 13 54 2 29 -46z"/>
<path d="M270 277 c-53 -27 -27 -64 32 -44 34 11 43 34 18 47 -23 12 -20 12
-50 -3z"/>
<path d="M16 201 c-10 -16 5 -41 24 -41 19 0 34 25 24 41 -3 5 -14 9 -24 9
-10 0 -21 -4 -24 -9z"/>
</g>
</svg>
