<svg width="16" height="16" viewBox="0 0 16 16" fill="none" xmlns="http://www.w3.org/2000/svg">
<g clip-path="url(#clip0_52_174)">
<path d="M12.6451 8.91174C12.3176 8.57067 11.9225 8.38832 11.5037 8.38832C11.0884 8.38832 10.6899 8.56729 10.3488 8.90836L9.28173 9.97208C9.19393 9.92481 9.10613 9.88091 9.0217 9.83701C8.90014 9.77623 8.78532 9.71882 8.68739 9.65803C7.68782 9.02317 6.77944 8.19583 5.90819 7.12535C5.48608 6.5918 5.20242 6.14267 4.99643 5.68679C5.27333 5.43352 5.52998 5.17012 5.77987 4.91685C5.87442 4.8223 5.96898 4.72437 6.06353 4.62982C6.77268 3.92066 6.77268 3.00215 6.06353 2.29299L5.14163 1.3711C5.03695 1.26641 4.92889 1.15835 4.82758 1.05029C4.62497 0.840924 4.41222 0.624801 4.19272 0.422187C3.86516 0.0980036 3.47344 -0.0742188 3.06146 -0.0742188C2.64947 -0.0742188 2.251 0.0980036 1.91331 0.422187C1.90993 0.425564 1.90993 0.425564 1.90655 0.428941L0.758404 1.58722C0.326159 2.01946 0.0796448 2.54626 0.0256142 3.15748C-0.0554316 4.14354 0.234983 5.06206 0.457859 5.66315C1.00492 7.13886 1.82213 8.50651 3.0412 9.97208C4.52028 11.7382 6.29991 13.1329 8.33281 14.1156C9.1095 14.4836 10.1462 14.9193 11.3045 14.9935C11.3754 14.9969 11.4497 15.0003 11.5172 15.0003C12.2973 15.0003 12.9524 14.72 13.4657 14.1628C13.4691 14.1561 13.4758 14.1527 13.4792 14.1459C13.6548 13.9332 13.8574 13.7407 14.0702 13.5347C14.2154 13.3963 14.364 13.2511 14.5092 13.0991C14.8435 12.7513 15.0191 12.3461 15.0191 11.9307C15.0191 11.512 14.8401 11.1101 14.4991 10.7724L12.6451 8.91174ZM13.8541 12.4676C13.8507 12.4676 13.8507 12.471 13.8541 12.4676C13.7224 12.6095 13.5873 12.7378 13.4421 12.8796C13.2226 13.089 12.9997 13.3085 12.7903 13.555C12.4493 13.9197 12.0474 14.0919 11.5206 14.0919C11.47 14.0919 11.4159 14.0919 11.3653 14.0885C10.3623 14.0244 9.43031 13.6327 8.73129 13.2983C6.81996 12.3731 5.14163 11.0595 3.74697 9.39463C2.59544 8.00672 1.82551 6.7235 1.31559 5.34572C1.00154 4.50487 0.886726 3.84975 0.93738 3.23178C0.971149 2.83668 1.12311 2.50912 1.40339 2.22883L2.55492 1.07731C2.72039 0.921969 2.89599 0.837547 3.06821 0.837547C3.28096 0.837547 3.45318 0.965869 3.56124 1.07393C3.56462 1.07731 3.56799 1.08068 3.57137 1.08406C3.77736 1.27654 3.97322 1.47578 4.17921 1.68853C4.2839 1.79659 4.39196 1.90465 4.50002 2.01609L5.42192 2.93798C5.77987 3.29594 5.77987 3.62687 5.42192 3.98483C5.32399 4.08276 5.22943 4.18069 5.1315 4.27524C4.84784 4.56565 4.57769 4.83581 4.2839 5.09921C4.27714 5.10596 4.27039 5.10934 4.26701 5.11609C3.9766 5.4065 4.03063 5.69016 4.09141 5.88265C4.09479 5.89278 4.09817 5.90291 4.10155 5.91304C4.34131 6.49387 4.679 7.04093 5.19229 7.69267L5.19566 7.69605C6.12769 8.8442 7.11037 9.73908 8.19436 10.4246C8.33281 10.5124 8.47464 10.5833 8.60972 10.6508C8.73129 10.7116 8.8461 10.769 8.94403 10.8298C8.95754 10.8366 8.97105 10.8467 8.98456 10.8535C9.09937 10.9109 9.20743 10.9379 9.31887 10.9379C9.59916 10.9379 9.77476 10.7623 9.83216 10.7049L10.9871 9.54997C11.1019 9.43516 11.2842 9.2967 11.497 9.2967C11.7063 9.2967 11.8786 9.4284 11.9833 9.54322C11.9866 9.54659 11.9866 9.54659 11.99 9.54997L13.8507 11.4106C14.1985 11.7551 14.1985 12.1097 13.8541 12.4676Z" fill="#6C6C6C"/>
<path d="M8.64673 2.80573C9.53148 2.95431 10.3352 3.37305 10.9768 4.01466C11.6184 4.65627 12.0338 5.45998 12.1857 6.34473C12.2229 6.56761 12.4154 6.72294 12.6349 6.72294C12.6619 6.72294 12.6855 6.71957 12.7125 6.71619C12.9624 6.67567 13.1279 6.43928 13.0874 6.18939C12.905 5.11891 12.3985 4.14298 11.6252 3.36967C10.8519 2.59636 9.87593 2.08982 8.80545 1.90747C8.55556 1.86695 8.32255 2.03242 8.27865 2.27893C8.23475 2.52544 8.39684 2.76521 8.64673 2.80573Z" fill="#6C6C6C"/>
<path d="M15.9829 6.05794C15.6823 4.29519 14.8516 2.69116 13.5751 1.41469C12.2986 0.138215 10.6946 -0.692505 8.93186 -0.99305C8.68535 -1.03695 8.45234 -0.868104 8.40844 -0.62159C8.36792 -0.371698 8.53339 -0.138692 8.78328 -0.0947917C10.3569 0.171984 11.7921 0.918281 12.9335 2.0563C14.0749 3.1977 14.8178 4.63288 15.0846 6.20652C15.1217 6.4294 15.3142 6.58474 15.5337 6.58474C15.5607 6.58474 15.5844 6.58136 15.6114 6.57798C15.8579 6.54084 16.0268 6.30445 15.9829 6.05794Z" fill="#6C6C6C"/>
</g>
<defs>
<clipPath id="clip0_52_174">
<rect width="16" height="16" fill="white"/>
</clipPath>
</defs>
</svg>
