<svg width="14" height="14" viewBox="0 0 14 14" fill="none" xmlns="http://www.w3.org/2000/svg">
<g clip-path="url(#clip0_52_184)">
<path d="M6.99975 0C3.14037 0 0 3.14012 0 7C0 10.8599 3.14037 14 6.99975 14C10.8599 14 13.9997 10.8599 13.9997 7C13.9997 3.14012 10.8599 0 6.99975 0ZM6.99975 13.0667C3.65467 13.0667 0.933283 10.3453 0.933283 7C0.933283 3.65467 3.65492 0.933283 6.99975 0.933283C10.3453 0.933283 13.0665 3.65467 13.0665 7C13.0665 10.3453 10.3456 13.0667 6.99975 13.0667Z" fill="#6C6C6C"/>
<path d="M10.466 6.49311H7.46598V2.52634C7.46598 2.26856 7.25699 2.05957 6.99947 2.05957C6.74219 2.05957 6.5332 2.26881 6.5332 2.52634V7.42614H10.466C10.7235 7.42614 10.9325 7.2174 10.9323 6.95962C10.9323 6.70209 10.723 6.49311 10.466 6.49311Z" fill="#6C6C6C"/>
</g>
<defs>
<clipPath id="clip0_52_184">
<rect width="14" height="14" fill="white"/>
</clipPath>
</defs>
</svg>
